<mxfile host="app.diagrams.net" modified="2023-11-23T22:57:55.003Z" agent="Mozilla/5.0 (Macintosh; Intel Mac OS X 10_15_7) AppleWebKit/537.36 (KHTML, like Gecko) Chrome/119.0.0.0 Safari/537.36" etag="X7byfxjwbFXvhool6DuT" version="22.1.3" type="github" pages="2">
  <diagram name="Page-1" id="H2PNP9Bhj-OUYcUANzm3">
    <mxGraphModel dx="845" dy="770" grid="0" gridSize="10" guides="1" tooltips="1" connect="1" arrows="1" fold="1" page="1" pageScale="1" pageWidth="850" pageHeight="1100" math="0" shadow="0">
      <root>
        <mxCell id="0" />
        <mxCell id="1" parent="0" />
        <mxCell id="s4HSh4CGJCA3ioL9Xt8n-1" value="&lt;p style=&quot;margin:0px;margin-top:4px;text-align:center;&quot;&gt;&lt;font style=&quot;font-size: 15px;&quot; face=&quot;Times New Roman&quot;&gt;BinaryTree&lt;/font&gt;&lt;/p&gt;&lt;hr size=&quot;1&quot;&gt;&lt;p style=&quot;margin: 0in;&quot; class=&quot;MsoNormal&quot;&gt;&lt;font style=&quot;font-size: 14px;&quot; face=&quot;Times New Roman&quot;&gt;&amp;nbsp; - root: TreeNode&lt;/font&gt;&lt;font style=&quot;font-size: 12pt;&quot; face=&quot;Calibri, sans-serif&quot;&gt;&lt;/font&gt;&lt;/p&gt;&lt;hr size=&quot;1&quot;&gt;&lt;p style=&quot;margin: 0in;&quot; class=&quot;MsoNormal&quot;&gt;&lt;font style=&quot;font-size: 14px;&quot; face=&quot;Times New Roman&quot;&gt;&amp;nbsp; + BinaryTree(input: String)&amp;nbsp;&amp;nbsp;&amp;nbsp;&amp;nbsp;&amp;nbsp;&amp;nbsp;&lt;/font&gt;&lt;/p&gt;&lt;p style=&quot;margin: 0in;&quot; class=&quot;MsoNormal&quot;&gt;&lt;font size=&quot;3&quot; face=&quot;Times New Roman&quot;&gt;&amp;nbsp; - constructTree(tokens: String[],&lt;/font&gt;&lt;/p&gt;&lt;p style=&quot;margin: 0in;&quot; class=&quot;MsoNormal&quot;&gt;&lt;font size=&quot;3&quot; face=&quot;Times New Roman&quot;&gt;&amp;nbsp;&amp;nbsp; index: int[]): TreeNode&amp;nbsp;&amp;nbsp;&amp;nbsp;&amp;nbsp;&amp;nbsp;&amp;nbsp;&amp;nbsp;&amp;nbsp;&lt;/font&gt;&lt;/p&gt;&lt;p style=&quot;margin: 0in;&quot; class=&quot;MsoNormal&quot;&gt;&lt;font size=&quot;3&quot; face=&quot;Times New Roman&quot;&gt;&amp;nbsp; + BinaryTree(sortedValues:&amp;nbsp;&amp;nbsp;&amp;nbsp;&amp;nbsp;&amp;nbsp;&amp;nbsp;&amp;nbsp;&lt;/font&gt;&lt;/p&gt;&lt;p style=&quot;margin: 0in;&quot; class=&quot;MsoNormal&quot;&gt;&lt;font size=&quot;3&quot; face=&quot;Times New Roman&quot;&gt;&amp;nbsp; List&amp;lt;Integer&amp;gt;)&amp;nbsp;&amp;nbsp;&amp;nbsp;&amp;nbsp;&amp;nbsp;&amp;nbsp;&amp;nbsp;&amp;nbsp;&amp;nbsp;&amp;nbsp;&amp;nbsp;&amp;nbsp;&amp;nbsp;&amp;nbsp;&amp;nbsp;&amp;nbsp;&lt;/font&gt;&lt;/p&gt;&lt;p style=&quot;margin: 0in;&quot; class=&quot;MsoNormal&quot;&gt;&lt;font size=&quot;3&quot; face=&quot;Times New Roman&quot;&gt;&amp;nbsp; - constructTreeFromString(str:&amp;nbsp;&amp;nbsp;&amp;nbsp;&lt;/font&gt;&lt;/p&gt;&lt;p style=&quot;margin: 0in;&quot; class=&quot;MsoNormal&quot;&gt;&lt;font size=&quot;3&quot; face=&quot;Times New Roman&quot;&gt;&amp;nbsp; String, index: int[]): TreeNode&lt;/font&gt;&lt;/p&gt;&lt;p style=&quot;margin: 0in;&quot; class=&quot;MsoNormal&quot;&gt;&lt;font size=&quot;3&quot; face=&quot;Times New Roman&quot;&gt;&amp;nbsp; - constructBalancedBST(values:&amp;nbsp;&amp;nbsp;&amp;nbsp;&lt;/font&gt;&lt;/p&gt;&lt;p style=&quot;margin: 0in;&quot; class=&quot;MsoNormal&quot;&gt;&lt;font size=&quot;3&quot; face=&quot;Times New Roman&quot;&gt;&amp;nbsp;&amp;nbsp; List&amp;lt;Integer&amp;gt;, start: int,&amp;nbsp;&amp;nbsp;&amp;nbsp;&amp;nbsp;&amp;nbsp;&lt;/font&gt;&lt;/p&gt;&lt;p style=&quot;margin: 0in;&quot; class=&quot;MsoNormal&quot;&gt;&lt;font size=&quot;3&quot; face=&quot;Times New Roman&quot;&gt;&amp;nbsp;&amp;nbsp; end: int): TreeNode&amp;nbsp;&amp;nbsp;&amp;nbsp;&amp;nbsp;&amp;nbsp;&amp;nbsp;&amp;nbsp;&amp;nbsp;&amp;nbsp;&amp;nbsp;&amp;nbsp;&amp;nbsp;&lt;/font&gt;&lt;/p&gt;&lt;p style=&quot;margin: 0in;&quot; class=&quot;MsoNormal&quot;&gt;&lt;font size=&quot;3&quot; face=&quot;Times New Roman&quot;&gt;&amp;nbsp; + displayIndented(): void&amp;nbsp;&amp;nbsp;&amp;nbsp;&amp;nbsp;&amp;nbsp;&amp;nbsp;&amp;nbsp;&amp;nbsp;&lt;/font&gt;&lt;/p&gt;&lt;p style=&quot;margin: 0in;&quot; class=&quot;MsoNormal&quot;&gt;&lt;font size=&quot;3&quot; face=&quot;Times New Roman&quot;&gt;&amp;nbsp; - displayIndented(node: TreeNode,&lt;/font&gt;&lt;/p&gt;&lt;p style=&quot;margin: 0in;&quot; class=&quot;MsoNormal&quot;&gt;&lt;font size=&quot;3&quot; face=&quot;Times New Roman&quot;&gt;&amp;nbsp;&amp;nbsp; depth: int): void&amp;nbsp;&amp;nbsp;&amp;nbsp;&amp;nbsp;&amp;nbsp;&amp;nbsp;&amp;nbsp;&amp;nbsp;&amp;nbsp;&amp;nbsp;&amp;nbsp;&amp;nbsp;&amp;nbsp;&amp;nbsp;&lt;/font&gt;&lt;/p&gt;&lt;p style=&quot;margin: 0in;&quot; class=&quot;MsoNormal&quot;&gt;&lt;font size=&quot;3&quot; face=&quot;Times New Roman&quot;&gt;&amp;nbsp; + isBinarySearchTree(): boolean&amp;nbsp;&amp;nbsp;&lt;/font&gt;&lt;/p&gt;&lt;p style=&quot;margin: 0in;&quot; class=&quot;MsoNormal&quot;&gt;&lt;font size=&quot;3&quot; face=&quot;Times New Roman&quot;&gt;&amp;nbsp; - isBinarySearchTree(node:&amp;nbsp;&amp;nbsp;&amp;nbsp;&amp;nbsp;&amp;nbsp;&amp;nbsp;&amp;nbsp;&lt;/font&gt;&lt;/p&gt;&lt;p style=&quot;margin: 0in;&quot; class=&quot;MsoNormal&quot;&gt;&lt;font size=&quot;3&quot; face=&quot;Times New Roman&quot;&gt;&amp;nbsp; TreeNode, min: Integer, max:&amp;nbsp;&amp;nbsp;&amp;nbsp;&lt;/font&gt;&lt;/p&gt;&lt;p style=&quot;margin: 0in;&quot; class=&quot;MsoNormal&quot;&gt;&lt;font size=&quot;3&quot; face=&quot;Times New Roman&quot;&gt;&amp;nbsp;&amp;nbsp; Integer): boolean&amp;nbsp;&amp;nbsp;&amp;nbsp;&amp;nbsp;&amp;nbsp;&amp;nbsp;&amp;nbsp;&amp;nbsp;&amp;nbsp;&amp;nbsp;&amp;nbsp;&amp;nbsp;&amp;nbsp;&amp;nbsp;&lt;/font&gt;&lt;/p&gt;&lt;p style=&quot;margin: 0in;&quot; class=&quot;MsoNormal&quot;&gt;&lt;font size=&quot;3&quot; face=&quot;Times New Roman&quot;&gt;&amp;nbsp; + isBalanced(): boolean&amp;nbsp;&amp;nbsp;&amp;nbsp;&amp;nbsp;&amp;nbsp;&amp;nbsp;&amp;nbsp;&amp;nbsp;&amp;nbsp;&amp;nbsp;&lt;/font&gt;&lt;/p&gt;&lt;p style=&quot;margin: 0in;&quot; class=&quot;MsoNormal&quot;&gt;&lt;font size=&quot;3&quot; face=&quot;Times New Roman&quot;&gt;&amp;nbsp; - isBalanced(node: TreeNode): int&lt;/font&gt;&lt;/p&gt;&lt;p style=&quot;margin: 0in;&quot; class=&quot;MsoNormal&quot;&gt;&lt;font size=&quot;3&quot; face=&quot;Times New Roman&quot;&gt;&amp;nbsp; + getHeight(): int&amp;nbsp; &amp;nbsp; &amp;nbsp; &amp;nbsp; &amp;nbsp; &amp;nbsp; &amp;nbsp; &amp;nbsp;&amp;nbsp;&lt;/font&gt;&lt;/p&gt;&lt;p style=&quot;margin: 0in;&quot; class=&quot;MsoNormal&quot;&gt;&lt;font size=&quot;3&quot; face=&quot;Times New Roman&quot;&gt;&amp;nbsp; - getHeight(node: TreeNode): int&amp;nbsp;&lt;/font&gt;&lt;/p&gt;&lt;p style=&quot;margin: 0in;&quot; class=&quot;MsoNormal&quot;&gt;&lt;font size=&quot;3&quot; face=&quot;Times New Roman&quot;&gt;&amp;nbsp; + getValues(): List&amp;lt;Integer&amp;gt;&amp;nbsp;&amp;nbsp;&amp;nbsp;&amp;nbsp;&amp;nbsp;&lt;/font&gt;&lt;/p&gt;&lt;p style=&quot;margin: 0in;&quot; class=&quot;MsoNormal&quot;&gt;&lt;font size=&quot;3&quot; face=&quot;Times New Roman&quot;&gt;&amp;nbsp; - inorderTraversal(node: TreeNode,&lt;/font&gt;&lt;/p&gt;&lt;p style=&quot;margin: 0in;&quot; class=&quot;MsoNormal&quot;&gt;&lt;font size=&quot;3&quot; style=&quot;&quot; face=&quot;Times New Roman&quot;&gt;&amp;nbsp;&amp;nbsp; values: List&amp;lt;Integer&amp;gt;): void&lt;/font&gt;&lt;/p&gt;" style="verticalAlign=top;align=left;overflow=fill;fontSize=12;fontFamily=Helvetica;html=1;whiteSpace=wrap;" vertex="1" parent="1">
          <mxGeometry x="70" y="80" width="260" height="550" as="geometry" />
        </mxCell>
        <mxCell id="s4HSh4CGJCA3ioL9Xt8n-3" value="&lt;p style=&quot;margin:0px;margin-top:4px;text-align:center;&quot;&gt;&lt;font face=&quot;Times New Roman&quot; style=&quot;font-size: 15px;&quot;&gt;TreeNode&lt;/font&gt;&lt;/p&gt;&lt;hr size=&quot;1&quot;&gt;&lt;p style=&quot;margin: 0in;&quot; class=&quot;MsoNormal&quot;&gt;&lt;font style=&quot;&quot; face=&quot;Times New Roman&quot;&gt;&lt;span style=&quot;font-size: 14px;&quot;&gt;&amp;nbsp; &lt;/span&gt;&lt;font style=&quot;font-size: 14px;&quot;&gt;+ data: int&amp;nbsp;&amp;nbsp;&amp;nbsp;&amp;nbsp;&amp;nbsp;&amp;nbsp;&amp;nbsp;&amp;nbsp;&amp;nbsp;&amp;nbsp;&amp;nbsp;&amp;nbsp;&amp;nbsp;&amp;nbsp;&amp;nbsp;&amp;nbsp;&amp;nbsp;&amp;nbsp;&amp;nbsp;&amp;nbsp;&amp;nbsp;&amp;nbsp;&lt;/font&gt;&lt;/font&gt;&lt;/p&gt;&lt;p style=&quot;margin: 0in;&quot; class=&quot;MsoNormal&quot;&gt;&lt;font style=&quot;font-size: 14px;&quot; face=&quot;Times New Roman&quot;&gt;&amp;nbsp; + left: TreeNode&amp;nbsp;&amp;nbsp;&amp;nbsp;&amp;nbsp;&amp;nbsp;&amp;nbsp;&amp;nbsp;&amp;nbsp;&amp;nbsp;&amp;nbsp;&amp;nbsp;&amp;nbsp;&amp;nbsp;&amp;nbsp;&amp;nbsp;&amp;nbsp;&amp;nbsp;&lt;/font&gt;&lt;/p&gt;&lt;p style=&quot;margin: 0in;&quot; class=&quot;MsoNormal&quot;&gt;&lt;font style=&quot;font-size: 14px;&quot;&gt;&lt;font face=&quot;Times New Roman&quot;&gt;&amp;nbsp; + right: TreeNode&amp;nbsp; &amp;nbsp;&lt;/font&gt;&lt;/font&gt;&lt;/p&gt;&lt;hr size=&quot;1&quot;&gt;&lt;p style=&quot;margin:0px;margin-left:4px;&quot;&gt;&lt;span style=&quot;background-color: initial;&quot;&gt;&amp;nbsp;&lt;font style=&quot;font-size: 14px;&quot; face=&quot;Times New Roman&quot;&gt;+ TreeNode(data: int)&lt;/font&gt;&lt;/span&gt;&lt;span style=&quot;background-color: initial; font-family: Calibri, sans-serif; font-size: 12pt;&quot;&gt;&amp;nbsp;&amp;nbsp;&lt;/span&gt;&lt;br&gt;&lt;/p&gt;" style="verticalAlign=top;align=left;overflow=fill;fontSize=12;fontFamily=Helvetica;html=1;whiteSpace=wrap;strokeColor=default;fontColor=default;fillColor=default;" vertex="1" parent="1">
          <mxGeometry x="510" y="80" width="250" height="140" as="geometry" />
        </mxCell>
        <mxCell id="s4HSh4CGJCA3ioL9Xt8n-6" value="&lt;p style=&quot;margin:0px;margin-top:4px;text-align:center;&quot;&gt;&lt;font face=&quot;Times New Roman&quot; style=&quot;font-size: 15px;&quot;&gt;SyntaxValidationException&lt;/font&gt;&lt;/p&gt;&lt;hr size=&quot;1&quot;&gt;&lt;p style=&quot;margin:0px;margin-left:4px;&quot;&gt;&lt;br&gt;&lt;br&gt;&lt;/p&gt;&lt;hr size=&quot;1&quot;&gt;&lt;p style=&quot;margin:0px;margin-left:4px;&quot;&gt;&lt;br&gt;&lt;/p&gt;&lt;p style=&quot;margin: 0in;&quot; class=&quot;MsoNormal&quot;&gt;&lt;font style=&quot;font-size: 14px;&quot; face=&quot;Times New Roman&quot;&gt;&amp;nbsp; + SyntaxValidationException(&lt;/font&gt;&lt;/p&gt;&lt;p style=&quot;margin: 0in;&quot; class=&quot;MsoNormal&quot;&gt;&lt;font size=&quot;3&quot; face=&quot;Times New Roman&quot;&gt;&lt;/font&gt;&lt;/p&gt;&lt;p style=&quot;margin:0px;margin-left:4px;&quot;&gt;&lt;font size=&quot;3&quot; face=&quot;Times New Roman&quot;&gt;&amp;nbsp; &amp;nbsp;&lt;span style=&quot;background-color: initial;&quot;&gt;&amp;nbsp;&lt;/span&gt;&lt;span style=&quot;background-color: initial;&quot;&gt;message: String)&lt;/span&gt;&lt;/font&gt;&lt;/p&gt;" style="verticalAlign=top;align=left;overflow=fill;fontSize=12;fontFamily=Helvetica;html=1;whiteSpace=wrap;strokeColor=default;fontColor=default;fillColor=default;" vertex="1" parent="1">
          <mxGeometry x="60" y="940" width="260" height="140" as="geometry" />
        </mxCell>
        <mxCell id="s4HSh4CGJCA3ioL9Xt8n-7" value="&lt;p style=&quot;margin:0px;margin-top:4px;text-align:center;&quot;&gt;&lt;i&gt;&lt;font style=&quot;font-size: 15px;&quot; face=&quot;Times New Roman&quot;&gt;Main&lt;/font&gt;&lt;/i&gt;&lt;br&gt;&lt;br&gt;&lt;/p&gt;&lt;hr size=&quot;1&quot;&gt;&lt;p style=&quot;margin:0px;margin-left:4px;&quot;&gt;&lt;br&gt;&lt;br&gt;&lt;/p&gt;&lt;hr size=&quot;1&quot;&gt;&lt;p style=&quot;margin:0px;margin-left:4px;&quot;&gt;&lt;span style=&quot;font-family: Calibri, sans-serif; font-size: 12pt; background-color: initial;&quot;&gt;&amp;nbsp; &lt;/span&gt;&lt;font face=&quot;Times New Roman&quot; style=&quot;font-size: 14px;&quot;&gt;&lt;span style=&quot;background-color: initial;&quot;&gt;+ main(args: String[]): void&amp;nbsp; &amp;nbsp;&amp;nbsp;&lt;/span&gt;&lt;br&gt;&lt;/font&gt;&lt;/p&gt;&lt;p style=&quot;margin: 0in;&quot; class=&quot;MsoNormal&quot;&gt;&lt;font style=&quot;font-size: 14px;&quot;&gt;&lt;font face=&quot;Times New Roman&quot;&gt;&amp;nbsp; - isValidSyntax(input: String):&lt;/font&gt;&lt;/font&gt;&lt;/p&gt;&lt;p style=&quot;margin: 0in;&quot; class=&quot;MsoNormal&quot;&gt;&lt;/p&gt;&lt;p style=&quot;margin:0px;margin-left:4px;&quot;&gt;&lt;font style=&quot;font-size: 14px;&quot; face=&quot;Times New Roman&quot;&gt;&amp;nbsp; &amp;nbsp;&lt;span style=&quot;background-color: initial;&quot;&gt;boolean&lt;/span&gt;&lt;/font&gt;&lt;/p&gt;" style="verticalAlign=top;align=left;overflow=fill;fontSize=12;fontFamily=Helvetica;html=1;whiteSpace=wrap;strokeColor=default;fontColor=default;fillColor=default;" vertex="1" parent="1">
          <mxGeometry x="390" y="670" width="220" height="160" as="geometry" />
        </mxCell>
        <mxCell id="s4HSh4CGJCA3ioL9Xt8n-16" value="&lt;p style=&quot;margin:0px;margin-top:4px;text-align:center;&quot;&gt;&lt;font style=&quot;font-size: 15px;&quot; face=&quot;Times New Roman&quot;&gt;Exception&lt;/font&gt;&lt;/p&gt;&lt;hr size=&quot;1&quot;&gt;&lt;p style=&quot;margin:0px;margin-left:4px;&quot;&gt;&lt;br&gt;&lt;br&gt;&lt;/p&gt;&lt;hr size=&quot;1&quot;&gt;&lt;p style=&quot;margin:0px;margin-left:4px;&quot;&gt;&lt;br&gt;&lt;/p&gt;&lt;p style=&quot;margin: 0in;&quot; class=&quot;MsoNormal&quot;&gt;&lt;font style=&quot;font-size: 14px;&quot; face=&quot;Times New Roman&quot;&gt;&amp;nbsp; + Exception(message: String)&amp;nbsp;&amp;nbsp;&amp;nbsp;&amp;nbsp;&amp;nbsp;&lt;/font&gt;&lt;/p&gt;&lt;p style=&quot;margin: 0in;&quot; class=&quot;MsoNormal&quot;&gt;&lt;font size=&quot;3&quot; face=&quot;Times New Roman&quot;&gt;&amp;nbsp; + getMessage(): String&amp;nbsp;&amp;nbsp;&amp;nbsp;&amp;nbsp;&amp;nbsp;&amp;nbsp;&amp;nbsp;&amp;nbsp;&amp;nbsp;&amp;nbsp;&amp;nbsp;&lt;/font&gt;&lt;/p&gt;&lt;p style=&quot;margin: 0in;&quot; class=&quot;MsoNormal&quot;&gt;&lt;/p&gt;&lt;p style=&quot;margin:0px;margin-left:4px;&quot;&gt;&lt;br&gt;&lt;/p&gt;" style="verticalAlign=top;align=left;overflow=fill;fontSize=12;fontFamily=Helvetica;html=1;whiteSpace=wrap;strokeColor=default;fontColor=default;fillColor=default;" vertex="1" parent="1">
          <mxGeometry x="510" y="930" width="210" height="140" as="geometry" />
        </mxCell>
        <mxCell id="s4HSh4CGJCA3ioL9Xt8n-17" value="" style="endArrow=diamondThin;endFill=1;endSize=24;html=1;rounded=0;fontFamily=Helvetica;fontSize=12;fontColor=default;entryX=0.996;entryY=0.136;entryDx=0;entryDy=0;entryPerimeter=0;" edge="1" parent="1">
          <mxGeometry width="160" relative="1" as="geometry">
            <mxPoint x="509" y="160" as="sourcePoint" />
            <mxPoint x="330.00000000000006" y="159.99999999999994" as="targetPoint" />
            <Array as="points" />
          </mxGeometry>
        </mxCell>
        <mxCell id="s4HSh4CGJCA3ioL9Xt8n-18" value="Extends" style="endArrow=block;endSize=16;endFill=0;html=1;rounded=0;fontFamily=Helvetica;fontSize=12;fontColor=default;entryX=0;entryY=0.5;entryDx=0;entryDy=0;exitX=1.008;exitY=0.429;exitDx=0;exitDy=0;exitPerimeter=0;" edge="1" parent="1" source="s4HSh4CGJCA3ioL9Xt8n-6" target="s4HSh4CGJCA3ioL9Xt8n-16">
          <mxGeometry width="160" relative="1" as="geometry">
            <mxPoint x="400" y="800" as="sourcePoint" />
            <mxPoint x="560" y="800" as="targetPoint" />
          </mxGeometry>
        </mxCell>
        <mxCell id="s4HSh4CGJCA3ioL9Xt8n-19" value="Use" style="endArrow=open;endSize=12;dashed=1;html=1;rounded=0;fontFamily=Helvetica;fontSize=12;fontColor=default;exitX=-0.014;exitY=0.181;exitDx=0;exitDy=0;exitPerimeter=0;entryX=0.227;entryY=-0.029;entryDx=0;entryDy=0;entryPerimeter=0;" edge="1" parent="1" source="s4HSh4CGJCA3ioL9Xt8n-7" target="s4HSh4CGJCA3ioL9Xt8n-6">
          <mxGeometry width="160" relative="1" as="geometry">
            <mxPoint x="400" y="670" as="sourcePoint" />
            <mxPoint x="117" y="936" as="targetPoint" />
            <Array as="points">
              <mxPoint x="120" y="699" />
            </Array>
          </mxGeometry>
        </mxCell>
        <mxCell id="s4HSh4CGJCA3ioL9Xt8n-20" value="Use" style="endArrow=open;endSize=12;dashed=1;html=1;rounded=0;fontFamily=Helvetica;fontSize=12;fontColor=default;entryX=1.012;entryY=0.811;entryDx=0;entryDy=0;entryPerimeter=0;exitX=0.405;exitY=-0.012;exitDx=0;exitDy=0;exitPerimeter=0;" edge="1" parent="1" source="s4HSh4CGJCA3ioL9Xt8n-7" target="s4HSh4CGJCA3ioL9Xt8n-1">
          <mxGeometry x="0.2577" width="160" relative="1" as="geometry">
            <mxPoint x="400" y="540" as="sourcePoint" />
            <mxPoint x="560" y="540" as="targetPoint" />
            <Array as="points">
              <mxPoint x="479" y="526" />
            </Array>
            <mxPoint as="offset" />
          </mxGeometry>
        </mxCell>
      </root>
    </mxGraphModel>
  </diagram>
  <diagram id="OKMGE3bl69Qpar_yx9SD" name="Page-2">
    <mxGraphModel dx="845" dy="770" grid="1" gridSize="10" guides="1" tooltips="1" connect="1" arrows="1" fold="1" page="1" pageScale="1" pageWidth="850" pageHeight="1100" math="0" shadow="0">
      <root>
        <mxCell id="0" />
        <mxCell id="1" parent="0" />
      </root>
    </mxGraphModel>
  </diagram>
</mxfile>
